<svg xmlns="http://www.w3.org/2000/svg" xmlns:xlink="http://www.w3.org/1999/xlink" contentStyleType="text/css" data-diagram-type="CLASS" height="569px" preserveAspectRatio="none" style="width:384px;height:569px;background:#FFFFFF;" version="1.1" viewBox="0 0 384 569" width="384px" zoomAndPan="magnify"><defs/><g><!--class Shape--><g class="entity" data-entity="Shape" data-source-line="1" data-uid="ent0002" id="entity_Shape"><rect fill="#F1F1F1" height="80.9766" rx="2.5" ry="2.5" style="stroke:#181818;stroke-width:0.5;" width="125.8184" x="31.04" y="148.48"/><ellipse cx="70.0012" cy="164.48" fill="#B4A7E5" rx="11" ry="11" style="stroke:#181818;stroke-width:1;"/><path d="M66.4289,160.7451 L66.4289,158.5869 L73.8083,158.5869 L73.8083,160.7451 L71.343,160.7451 L71.343,168.8218 L73.8083,168.8218 L73.8083,170.98 L66.4289,170.98 L66.4289,168.8218 L68.8942,168.8218 L68.8942,160.7451 Z " fill="#000000"/><text fill="#000000" font-family="sans-serif" font-size="14" font-style="italic" lengthAdjust="spacing" textLength="40.5713" x="89.3259" y="169.771">Shape</text><line style="stroke:#181818;stroke-width:0.5;" x1="32.04" x2="155.8584" y1="180.48" y2="180.48"/><line style="stroke:#181818;stroke-width:0.5;" x1="32.04" x2="155.8584" y1="188.48" y2="188.48"/><ellipse cx="42.04" cy="202.2241" fill="#84BE84" rx="3" ry="3" style="stroke:#038048;stroke-width:1;"/><text fill="#000000" font-family="sans-serif" font-size="14" lengthAdjust="spacing" textLength="42.1641" x="51.04" y="206.0152">draw()</text><ellipse cx="42.04" cy="218.7124" fill="#84BE84" rx="3" ry="3" style="stroke:#038048;stroke-width:1;"/><text fill="#000000" font-family="sans-serif" font-size="14" lengthAdjust="spacing" textLength="99.8184" x="51.04" y="222.5034">area() : Double</text></g><!--class Circle--><g class="entity" data-entity="Circle" data-source-line="6" data-uid="ent0003" id="entity_Circle"><rect fill="#F1F1F1" height="80.9766" rx="2.5" ry="2.5" style="stroke:#181818;stroke-width:0.5;" width="125.8184" x="11.04" y="315.19"/><ellipse cx="50.9425" cy="331.19" fill="#ADD1B2" rx="11" ry="11" style="stroke:#181818;stroke-width:1;"/><path d="M53.4156,337.3331 Q52.8346,337.6319 52.1954,337.7813 Q51.5563,337.9307 50.8507,337.9307 Q48.3439,337.9307 47.024,336.2789 Q45.7042,334.627 45.7042,331.5059 Q45.7042,328.3765 47.024,326.7247 Q48.3439,325.0728 50.8507,325.0728 Q51.5563,325.0728 52.2037,325.2222 Q52.8512,325.3716 53.4156,325.6705 L53.4156,328.3931 Q52.7848,327.8121 52.1913,327.5423 Q51.5978,327.2725 50.9669,327.2725 Q49.6222,327.2725 48.9374,328.3392 Q48.2525,329.4058 48.2525,331.5059 Q48.2525,333.5977 48.9374,334.6644 Q49.6222,335.731 50.9669,335.731 Q51.5978,335.731 52.1913,335.4612 Q52.7848,335.1915 53.4156,334.6104 Z " fill="#000000"/><text fill="#000000" font-family="sans-serif" font-size="14" lengthAdjust="spacing" textLength="38.4795" x="70.4764" y="336.481">Circle</text><line style="stroke:#181818;stroke-width:0.5;" x1="12.04" x2="135.8584" y1="347.19" y2="347.19"/><line style="stroke:#181818;stroke-width:0.5;" x1="12.04" x2="135.8584" y1="355.19" y2="355.19"/><ellipse cx="22.04" cy="368.9341" fill="#84BE84" rx="3" ry="3" style="stroke:#038048;stroke-width:1;"/><text fill="#000000" font-family="sans-serif" font-size="14" lengthAdjust="spacing" textLength="42.1641" x="31.04" y="372.7252">draw()</text><ellipse cx="22.04" cy="385.4224" fill="#84BE84" rx="3" ry="3" style="stroke:#038048;stroke-width:1;"/><text fill="#000000" font-family="sans-serif" font-size="14" lengthAdjust="spacing" textLength="99.8184" x="31.04" y="389.2134">area() : Double</text></g><!--class LegacyRectangle--><g class="entity" data-entity="LegacyRectangle" data-source-line="11" data-uid="ent0004" id="entity_LegacyRectangle"><rect fill="#F1F1F1" height="64.4883" rx="2.5" ry="2.5" style="stroke:#181818;stroke-width:0.5;" width="144.2666" x="202.81" y="497.9"/><ellipse cx="217.81" cy="513.9" fill="#ADD1B2" rx="11" ry="11" style="stroke:#181818;stroke-width:1;"/><path d="M220.2831,520.0431 Q219.7021,520.3419 219.0629,520.4913 Q218.4238,520.6407 217.7182,520.6407 Q215.2114,520.6407 213.8915,518.9889 Q212.5717,517.337 212.5717,514.2159 Q212.5717,511.0865 213.8915,509.4347 Q215.2114,507.7828 217.7182,507.7828 Q218.4238,507.7828 219.0712,507.9322 Q219.7187,508.0816 220.2831,508.3805 L220.2831,511.1031 Q219.6523,510.5221 219.0588,510.2523 Q218.4653,509.9825 217.8344,509.9825 Q216.4897,509.9825 215.8049,511.0492 Q215.1201,512.1158 215.1201,514.2159 Q215.1201,516.3077 215.8049,517.3744 Q216.4897,518.441 217.8344,518.441 Q218.4653,518.441 219.0588,518.1712 Q219.6523,517.9015 220.2831,517.3204 Z " fill="#000000"/><text fill="#000000" font-family="sans-serif" font-size="14" lengthAdjust="spacing" textLength="112.2666" x="231.81" y="519.191">LegacyRectangle</text><line style="stroke:#181818;stroke-width:0.5;" x1="203.81" x2="346.0766" y1="529.9" y2="529.9"/><line style="stroke:#181818;stroke-width:0.5;" x1="203.81" x2="346.0766" y1="537.9" y2="537.9"/><ellipse cx="213.81" cy="551.6441" fill="#84BE84" rx="3" ry="3" style="stroke:#038048;stroke-width:1;"/><text fill="#000000" font-family="sans-serif" font-size="14" lengthAdjust="spacing" textLength="108.2197" x="222.81" y="555.4352">drawRectangle()</text></g><!--class RectangleAdapter--><g class="entity" data-entity="RectangleAdapter" data-source-line="15" data-uid="ent0005" id="entity_RectangleAdapter"><rect fill="#F1F1F1" height="130.4414" rx="2.5" ry="2.5" style="stroke:#181818;stroke-width:0.5;" width="205.6279" x="172.13" y="290.46"/><ellipse cx="211.3373" cy="306.46" fill="#ADD1B2" rx="11" ry="11" style="stroke:#181818;stroke-width:1;"/><path d="M213.8104,312.6031 Q213.2294,312.9019 212.5902,313.0513 Q211.951,313.2007 211.2455,313.2007 Q208.7386,313.2007 207.4188,311.5489 Q206.099,309.897 206.099,306.7759 Q206.099,303.6465 207.4188,301.9947 Q208.7386,300.3428 211.2455,300.3428 Q211.951,300.3428 212.5985,300.4922 Q213.246,300.6416 213.8104,300.9405 L213.8104,303.6631 Q213.1796,303.0821 212.5861,302.8123 Q211.9925,302.5425 211.3617,302.5425 Q210.017,302.5425 209.3321,303.6092 Q208.6473,304.6758 208.6473,306.7759 Q208.6473,308.8677 209.3321,309.9344 Q210.017,311.001 211.3617,311.001 Q211.9925,311.001 212.5861,310.7312 Q213.1796,310.4615 213.8104,309.8804 Z " fill="#000000"/><text fill="#000000" font-family="sans-serif" font-size="14" lengthAdjust="spacing" textLength="119.834" x="230.7167" y="311.751">RectangleAdapter</text><line style="stroke:#181818;stroke-width:0.5;" x1="173.13" x2="376.7579" y1="322.46" y2="322.46"/><rect fill="none" height="6" style="stroke:#C82930;stroke-width:1;" width="6" x="180.13" y="333.2041"/><text fill="#000000" font-family="sans-serif" font-size="14" lengthAdjust="spacing" textLength="179.6279" x="192.13" y="339.9952">LegacyRectangle rectangle</text><rect fill="none" height="6" style="stroke:#C82930;stroke-width:1;" width="6" x="180.13" y="349.6924"/><text fill="#000000" font-family="sans-serif" font-size="14" lengthAdjust="spacing" textLength="109.71" x="192.13" y="356.4834">Double longitud</text><rect fill="none" height="6" style="stroke:#C82930;stroke-width:1;" width="6" x="180.13" y="366.1807"/><text fill="#000000" font-family="sans-serif" font-size="14" lengthAdjust="spacing" textLength="93.7412" x="192.13" y="372.9717">Double ancho</text><line style="stroke:#181818;stroke-width:0.5;" x1="173.13" x2="376.7579" y1="379.9248" y2="379.9248"/><ellipse cx="183.13" cy="393.669" fill="#84BE84" rx="3" ry="3" style="stroke:#038048;stroke-width:1;"/><text fill="#000000" font-family="sans-serif" font-size="14" lengthAdjust="spacing" textLength="42.1641" x="192.13" y="397.46">draw()</text><ellipse cx="183.13" cy="410.1573" fill="#84BE84" rx="3" ry="3" style="stroke:#038048;stroke-width:1;"/><text fill="#000000" font-family="sans-serif" font-size="14" lengthAdjust="spacing" textLength="99.8184" x="192.13" y="413.9483">area() : Double</text></g><!--class AdapterPatternDemo--><g class="entity" data-entity="AdapterPatternDemo" data-source-line="23" data-uid="ent0006" id="entity_AdapterPatternDemo"><rect fill="#F1F1F1" height="64.4883" rx="2.5" ry="2.5" style="stroke:#181818;stroke-width:0.5;" width="173.8936" x="7" y="7"/><ellipse cx="22" cy="23" fill="#ADD1B2" rx="11" ry="11" style="stroke:#181818;stroke-width:1;"/><path d="M24.4731,29.1431 Q23.8921,29.4419 23.2529,29.5913 Q22.6138,29.7407 21.9082,29.7407 Q19.4014,29.7407 18.0815,28.0889 Q16.7617,26.437 16.7617,23.3159 Q16.7617,20.1865 18.0815,18.5347 Q19.4014,16.8828 21.9082,16.8828 Q22.6138,16.8828 23.2612,17.0322 Q23.9087,17.1816 24.4731,17.4805 L24.4731,20.2031 Q23.8423,19.6221 23.2488,19.3523 Q22.6553,19.0825 22.0244,19.0825 Q20.6797,19.0825 19.9949,20.1492 Q19.3101,21.2158 19.3101,23.3159 Q19.3101,25.4077 19.9949,26.4744 Q20.6797,27.541 22.0244,27.541 Q22.6553,27.541 23.2488,27.2712 Q23.8423,27.0015 24.4731,26.4204 Z " fill="#000000"/><text fill="#000000" font-family="sans-serif" font-size="14" lengthAdjust="spacing" textLength="141.8936" x="36" y="28.291">AdapterPatternDemo</text><line style="stroke:#181818;stroke-width:0.5;" x1="8" x2="179.8936" y1="39" y2="39"/><line style="stroke:#181818;stroke-width:0.5;" x1="8" x2="179.8936" y1="47" y2="47"/><ellipse cx="18" cy="60.7441" fill="#84BE84" rx="3" ry="3" style="stroke:#038048;stroke-width:1;"/><text fill="#000000" font-family="sans-serif" font-size="14" lengthAdjust="spacing" textLength="125.4736" x="27" y="64.5352">main(String[] args)</text></g><!--reverse link Shape to Circle--><g class="link" data-entity-1="Shape" data-entity-2="Circle" data-source-line="27" data-uid="lnk7" id="link_Shape_Circle"><path codeLine="27" d="M86.9353,247.7082 C83.7953,273.5082 81.91,289.11 78.78,314.89" fill="none" id="Shape-backto-Circle" style="stroke:#181818;stroke-width:1;stroke-dasharray:7.0,7.0;"/><polygon fill="none" points="89.11,229.84,80.9793,246.9833,92.8914,248.433,89.11,229.84" style="stroke:#181818;stroke-width:1;"/></g><!--reverse link Shape to RectangleAdapter--><g class="link" data-entity-1="Shape" data-entity-2="RectangleAdapter" data-source-line="28" data-uid="lnk8" id="link_Shape_RectangleAdapter"><path codeLine="28" d="M151.0732,241.9544 C170.9532,260.0444 181.66,269.79 204,290.12" fill="none" id="Shape-backto-RectangleAdapter" style="stroke:#181818;stroke-width:1;stroke-dasharray:7.0,7.0;"/><polygon fill="none" points="137.76,229.84,147.035,246.3922,155.1113,237.5167,137.76,229.84" style="stroke:#181818;stroke-width:1;"/></g><!--link RectangleAdapter to LegacyRectangle--><g class="link" data-entity-1="RectangleAdapter" data-entity-2="LegacyRectangle" data-source-line="29" data-uid="lnk9" id="link_RectangleAdapter_LegacyRectangle"><path codeLine="29" d="M274.95,421.39 C274.95,447.39 274.95,458.18 274.95,479.45" fill="none" id="RectangleAdapter-to-LegacyRectangle" style="stroke:#181818;stroke-width:1;stroke-dasharray:7.0,7.0;"/><polygon fill="none" points="274.95,497.45,280.95,479.45,268.95,479.45,274.95,497.45" style="stroke:#181818;stroke-width:1;"/><text fill="#000000" font-family="sans-serif" font-size="13" lengthAdjust="spacing" textLength="42.2119" x="275.95" y="464.4684">adapts</text></g><!--link AdapterPatternDemo to Shape--><g class="link" data-entity-1="AdapterPatternDemo" data-entity-2="Shape" data-source-line="30" data-uid="lnk10" id="link_AdapterPatternDemo_Shape"><path codeLine="30" d="M93.95,71.93 C93.95,94.23 93.95,118.24 93.95,142.15" fill="none" id="AdapterPatternDemo-to-Shape" style="stroke:#181818;stroke-width:1;stroke-dasharray:7.0,7.0;"/><polygon fill="#181818" points="93.95,148.15,97.95,139.15,93.95,143.15,89.95,139.15,93.95,148.15" style="stroke:#181818;stroke-width:1;"/><text fill="#000000" font-family="sans-serif" font-size="13" lengthAdjust="spacing" textLength="28.5645" x="94.95" y="115.0484">uses</text></g><!--SRC=[bL713e8m3BtlAtg46FS1n90OENemSZGUwgXZ2Mna6p56_7SHaA1uq4lJlFQrxxLAUx9d50HfZXN1ZG4i8BDu2S8kHKiOX111OkfJGUpEc2ZGETWeAuf_25kIAAvx4XwrV6EEM3jYR1_1TOPLAxBhNywcs5VMLVkTK1WjbQ-pAOPQvEPdiSFI7VesweHAC-WjKUaWzLPfUJYsVEawpVtrLWtdms6coASLDlF6UHFFh4M0px9ZNyHm7WyVYw1sv1u0]--></g></svg>