<svg xmlns="http://www.w3.org/2000/svg" xmlns:xlink="http://www.w3.org/1999/xlink" contentStyleType="text/css" data-diagram-type="CLASS" height="327px" preserveAspectRatio="none" style="width:558px;height:327px;background:#FFFFFF;" version="1.1" viewBox="0 0 558 327" width="558px" zoomAndPan="magnify"><defs/><g><!--class AudioDecoder--><g class="entity" data-entity="AudioDecoder" data-source-line="1" data-uid="ent0002" id="entity_AudioDecoder"><rect fill="#F1F1F1" height="64.4883" rx="2.5" ry="2.5" style="stroke:#181818;stroke-width:0.5;" width="153.9688" x="7" y="255.97"/><ellipse cx="33.595" cy="271.97" fill="#ADD1B2" rx="11" ry="11" style="stroke:#181818;stroke-width:1;"/><path d="M36.0681,278.1131 Q35.4871,278.4119 34.8479,278.5613 Q34.2087,278.7107 33.5032,278.7107 Q30.9963,278.7107 29.6765,277.0589 Q28.3567,275.407 28.3567,272.2859 Q28.3567,269.1565 29.6765,267.5047 Q30.9963,265.8528 33.5032,265.8528 Q34.2087,265.8528 34.8562,266.0022 Q35.5037,266.1516 36.0681,266.4505 L36.0681,269.1731 Q35.4373,268.5921 34.8438,268.3223 Q34.2502,268.0525 33.6194,268.0525 Q32.2747,268.0525 31.5898,269.1192 Q30.905,270.1858 30.905,272.2859 Q30.905,274.3777 31.5898,275.4444 Q32.2747,276.511 33.6194,276.511 Q34.2502,276.511 34.8438,276.2412 Q35.4373,275.9715 36.0681,275.3904 Z " fill="#000000"/><text fill="#000000" font-family="sans-serif" font-size="14" lengthAdjust="spacing" textLength="96.2021" x="50.1716" y="277.261">AudioDecoder</text><line style="stroke:#181818;stroke-width:0.5;" x1="8" x2="159.9688" y1="287.97" y2="287.97"/><line style="stroke:#181818;stroke-width:0.5;" x1="8" x2="159.9688" y1="295.97" y2="295.97"/><ellipse cx="18" cy="309.7141" fill="#84BE84" rx="3" ry="3" style="stroke:#038048;stroke-width:1;"/><text fill="#000000" font-family="sans-serif" font-size="14" lengthAdjust="spacing" textLength="127.9688" x="27" y="313.5052">decode(file: String)</text></g><!--class AudioPlayer--><g class="entity" data-entity="AudioPlayer" data-source-line="5" data-uid="ent0003" id="entity_AudioPlayer"><rect fill="#F1F1F1" height="64.4883" rx="2.5" ry="2.5" style="stroke:#181818;stroke-width:0.5;" width="132.8799" x="195.54" y="255.97"/><ellipse cx="219.8617" cy="271.97" fill="#ADD1B2" rx="11" ry="11" style="stroke:#181818;stroke-width:1;"/><path d="M222.3348,278.1131 Q221.7538,278.4119 221.1146,278.5613 Q220.4754,278.7107 219.7699,278.7107 Q217.263,278.7107 215.9432,277.0589 Q214.6234,275.407 214.6234,272.2859 Q214.6234,269.1565 215.9432,267.5047 Q217.263,265.8528 219.7699,265.8528 Q220.4754,265.8528 221.1229,266.0022 Q221.7704,266.1516 222.3348,266.4505 L222.3348,269.1731 Q221.704,268.5921 221.1105,268.3223 Q220.517,268.0525 219.8861,268.0525 Q218.5414,268.0525 217.8566,269.1192 Q217.1717,270.1858 217.1717,272.2859 Q217.1717,274.3777 217.8566,275.4444 Q218.5414,276.511 219.8861,276.511 Q220.517,276.511 221.1105,276.2412 Q221.704,275.9715 222.3348,275.3904 Z " fill="#000000"/><text fill="#000000" font-family="sans-serif" font-size="14" lengthAdjust="spacing" textLength="80.165" x="235.9332" y="277.261">AudioPlayer</text><line style="stroke:#181818;stroke-width:0.5;" x1="196.54" x2="327.4199" y1="287.97" y2="287.97"/><line style="stroke:#181818;stroke-width:0.5;" x1="196.54" x2="327.4199" y1="295.97" y2="295.97"/><ellipse cx="206.54" cy="309.7141" fill="#84BE84" rx="3" ry="3" style="stroke:#038048;stroke-width:1;"/><text fill="#000000" font-family="sans-serif" font-size="14" lengthAdjust="spacing" textLength="106.8799" x="215.54" y="313.5052">play(file: String)</text></g><!--class Equalizer--><g class="entity" data-entity="Equalizer" data-source-line="9" data-uid="ent0004" id="entity_Equalizer"><rect fill="#F1F1F1" height="64.4883" rx="2.5" ry="2.5" style="stroke:#181818;stroke-width:0.5;" width="188.0596" x="362.95" y="255.97"/><ellipse cx="421.4964" cy="271.97" fill="#ADD1B2" rx="11" ry="11" style="stroke:#181818;stroke-width:1;"/><path d="M423.9695,278.1131 Q423.3885,278.4119 422.7493,278.5613 Q422.1102,278.7107 421.4046,278.7107 Q418.8978,278.7107 417.5779,277.0589 Q416.2581,275.407 416.2581,272.2859 Q416.2581,269.1565 417.5779,267.5047 Q418.8978,265.8528 421.4046,265.8528 Q422.1102,265.8528 422.7576,266.0022 Q423.4051,266.1516 423.9695,266.4505 L423.9695,269.1731 Q423.3387,268.5921 422.7452,268.3223 Q422.1517,268.0525 421.5208,268.0525 Q420.1761,268.0525 419.4913,269.1192 Q418.8064,270.1858 418.8064,272.2859 Q418.8064,274.3777 419.4913,275.4444 Q420.1761,276.511 421.5208,276.511 Q422.1517,276.511 422.7452,276.2412 Q423.3387,275.9715 423.9695,275.3904 Z " fill="#000000"/><text fill="#000000" font-family="sans-serif" font-size="14" lengthAdjust="spacing" textLength="62.4668" x="441.9964" y="277.261">Equalizer</text><line style="stroke:#181818;stroke-width:0.5;" x1="363.95" x2="550.0096" y1="287.97" y2="287.97"/><line style="stroke:#181818;stroke-width:0.5;" x1="363.95" x2="550.0096" y1="295.97" y2="295.97"/><ellipse cx="373.95" cy="309.7141" fill="#84BE84" rx="3" ry="3" style="stroke:#038048;stroke-width:1;"/><text fill="#000000" font-family="sans-serif" font-size="14" lengthAdjust="spacing" textLength="162.0596" x="382.95" y="313.5052">setPreset(preset: String)</text></g><!--class MusicFacade--><g class="entity" data-entity="MusicFacade" data-source-line="13" data-uid="ent0005" id="entity_MusicFacade"><rect fill="#F1F1F1" height="64.4883" rx="2.5" ry="2.5" style="stroke:#181818;stroke-width:0.5;" width="272.1826" x="125.89" y="131.48"/><ellipse cx="214.805" cy="147.48" fill="#ADD1B2" rx="11" ry="11" style="stroke:#181818;stroke-width:1;"/><path d="M217.2782,153.6231 Q216.6971,153.9219 216.058,154.0713 Q215.4188,154.2207 214.7132,154.2207 Q212.2064,154.2207 210.8866,152.5689 Q209.5668,150.917 209.5668,147.7959 Q209.5668,144.6665 210.8866,143.0147 Q212.2064,141.3628 214.7132,141.3628 Q215.4188,141.3628 216.0663,141.5122 Q216.7137,141.6616 217.2782,141.9605 L217.2782,144.6831 Q216.6473,144.1021 216.0538,143.8323 Q215.4603,143.5625 214.8295,143.5625 Q213.4847,143.5625 212.7999,144.6292 Q212.1151,145.6958 212.1151,147.7959 Q212.1151,149.8877 212.7999,150.9544 Q213.4847,152.021 214.8295,152.021 Q215.4603,152.021 216.0538,151.7512 Q216.6473,151.4815 217.2782,150.9004 Z " fill="#000000"/><text fill="#000000" font-family="sans-serif" font-size="14" lengthAdjust="spacing" textLength="85.8525" x="235.305" y="152.771">MusicFacade</text><line style="stroke:#181818;stroke-width:0.5;" x1="126.89" x2="397.0726" y1="163.48" y2="163.48"/><line style="stroke:#181818;stroke-width:0.5;" x1="126.89" x2="397.0726" y1="171.48" y2="171.48"/><ellipse cx="136.89" cy="185.2241" fill="#84BE84" rx="3" ry="3" style="stroke:#038048;stroke-width:1;"/><text fill="#000000" font-family="sans-serif" font-size="14" lengthAdjust="spacing" textLength="246.1826" x="145.89" y="189.0152">playMusic(file: String, preset: String)</text></g><!--class Main--><g class="entity" data-entity="Main" data-source-line="17" data-uid="ent0006" id="entity_Main"><rect fill="#F1F1F1" height="64.4883" rx="2.5" ry="2.5" style="stroke:#181818;stroke-width:0.5;" width="68.6426" x="227.66" y="7"/><ellipse cx="244.5127" cy="23" fill="#ADD1B2" rx="11" ry="11" style="stroke:#181818;stroke-width:1;"/><path d="M246.9859,29.1431 Q246.4048,29.4419 245.7657,29.5913 Q245.1265,29.7407 244.4209,29.7407 Q241.9141,29.7407 240.5943,28.0889 Q239.2745,26.437 239.2745,23.3159 Q239.2745,20.1865 240.5943,18.5347 Q241.9141,16.8828 244.4209,16.8828 Q245.1265,16.8828 245.774,17.0322 Q246.4214,17.1816 246.9859,17.4805 L246.9859,20.2031 Q246.355,19.6221 245.7615,19.3523 Q245.168,19.0825 244.5371,19.0825 Q243.1924,19.0825 242.5076,20.1492 Q241.8228,21.2158 241.8228,23.3159 Q241.8228,25.4077 242.5076,26.4744 Q243.1924,27.541 244.5371,27.541 Q245.168,27.541 245.7615,27.2712 Q246.355,27.0015 246.9859,26.4204 Z " fill="#000000"/><text fill="#000000" font-family="sans-serif" font-size="14" lengthAdjust="spacing" textLength="32.5254" x="258.9245" y="28.291">Main</text><line style="stroke:#181818;stroke-width:0.5;" x1="228.66" x2="295.3026" y1="39" y2="39"/><line style="stroke:#181818;stroke-width:0.5;" x1="228.66" x2="295.3026" y1="47" y2="47"/><ellipse cx="238.66" cy="60.7441" fill="#84BE84" rx="3" ry="3" style="stroke:#038048;stroke-width:1;"/><text fill="#000000" font-family="sans-serif" font-size="14" lengthAdjust="spacing" textLength="42.6426" x="247.66" y="64.5352">main()</text></g><!--link MusicFacade to AudioDecoder--><g class="link" data-entity-1="MusicFacade" data-entity-2="AudioDecoder" data-source-line="21" data-uid="lnk7" id="link_MusicFacade_AudioDecoder"><path codeLine="21" d="M216.14,196.27 C189.67,214.49 161.4224,233.9281 134.9224,252.1681" fill="none" id="MusicFacade-to-AudioDecoder" style="stroke:#181818;stroke-width:1;"/><polygon fill="#181818" points="129.98,255.57,139.6615,253.7621,134.0987,252.7351,135.1257,247.1723,129.98,255.57" style="stroke:#181818;stroke-width:1;"/></g><!--link MusicFacade to AudioPlayer--><g class="link" data-entity-1="MusicFacade" data-entity-2="AudioPlayer" data-source-line="22" data-uid="lnk8" id="link_MusicFacade_AudioPlayer"><path codeLine="22" d="M261.98,196.27 C261.98,214.56 261.98,231.51 261.98,249.78" fill="none" id="MusicFacade-to-AudioPlayer" style="stroke:#181818;stroke-width:1;"/><polygon fill="#181818" points="261.98,255.78,265.98,246.78,261.98,250.78,257.98,246.78,261.98,255.78" style="stroke:#181818;stroke-width:1;"/></g><!--link MusicFacade to Equalizer--><g class="link" data-entity-1="MusicFacade" data-entity-2="Equalizer" data-source-line="23" data-uid="lnk9" id="link_MusicFacade_Equalizer"><path codeLine="23" d="M312.46,196.43 C341.46,214.65 372.6799,234.2574 401.6399,252.4574" fill="none" id="MusicFacade-to-Equalizer" style="stroke:#181818;stroke-width:1;"/><polygon fill="#181818" points="406.72,255.65,401.2283,247.4744,402.4866,252.9895,396.9715,254.2478,406.72,255.65" style="stroke:#181818;stroke-width:1;"/></g><!--link Main to MusicFacade--><g class="link" data-entity-1="Main" data-entity-2="MusicFacade" data-source-line="24" data-uid="lnk10" id="link_Main_MusicFacade"><path codeLine="24" d="M261.98,71.78 C261.98,90.07 261.98,107.02 261.98,125.29" fill="none" id="Main-to-MusicFacade" style="stroke:#181818;stroke-width:1;"/><polygon fill="#181818" points="261.98,131.29,265.98,122.29,261.98,126.29,257.98,122.29,261.98,131.29" style="stroke:#181818;stroke-width:1;"/></g><!--SRC=[Iyv9B2vMS2nDoSntIKtEJqajKgZcKb3GJW5pDD8oSrAj589BYZBpqZMvQhcuaX7g0t8IAs7A2u1iN8fT2qiJSpAhO4gBKqi2YbA1f4O1cCAYmxUqE3FPBJ4vCIKLOJnO4CKE7GNS9YHcva6qvW9P6c0PP5DrTUrGF8rT4k9333cuXxZ0re24a9G00000]--></g></svg>