<svg xmlns="http://www.w3.org/2000/svg" xmlns:xlink="http://www.w3.org/1999/xlink" contentStyleType="text/css" data-diagram-type="CLASS" height="503px" preserveAspectRatio="none" style="width:370px;height:503px;background:#FFFFFF;" version="1.1" viewBox="0 0 370 503" width="370px" zoomAndPan="magnify"><defs/><g><!--class Service--><g class="entity" data-entity="Service" data-source-line="1" data-uid="ent0002" id="entity_Service"><rect fill="#F1F1F1" height="64.4883" rx="2.5" ry="2.5" style="stroke:#181818;stroke-width:0.5;" width="215.6357" x="7" y="148.49"/><ellipse cx="86.9019" cy="164.49" fill="#B4A7E5" rx="11" ry="11" style="stroke:#181818;stroke-width:1;"/><path d="M83.3296,160.7551 L83.3296,158.5969 L90.709,158.5969 L90.709,160.7551 L88.2437,160.7551 L88.2437,168.8318 L90.709,168.8318 L90.709,170.99 L83.3296,170.99 L83.3296,168.8318 L85.7949,168.8318 L85.7949,160.7551 Z " fill="#000000"/><text fill="#000000" font-family="sans-serif" font-size="14" font-style="italic" lengthAdjust="spacing" textLength="47.332" x="107.4019" y="169.781">Service</text><line style="stroke:#181818;stroke-width:0.5;" x1="8" x2="221.6357" y1="180.49" y2="180.49"/><line style="stroke:#181818;stroke-width:0.5;" x1="8" x2="221.6357" y1="188.49" y2="188.49"/><ellipse cx="18" cy="202.2341" fill="#84BE84" rx="3" ry="3" style="stroke:#038048;stroke-width:1;"/><text fill="#000000" font-family="sans-serif" font-size="14" lengthAdjust="spacing" textLength="189.6357" x="27" y="206.0252">Request(user: string): string</text></g><!--class RealService--><g class="entity" data-entity="RealService" data-source-line="5" data-uid="ent0003" id="entity_RealService"><rect fill="#F1F1F1" height="64.4883" rx="2.5" ry="2.5" style="stroke:#181818;stroke-width:0.5;" width="215.6357" x="7" y="432.44"/><ellipse cx="72.6865" cy="448.44" fill="#ADD1B2" rx="11" ry="11" style="stroke:#181818;stroke-width:1;"/><path d="M75.1597,454.5831 Q74.5786,454.8819 73.9395,455.0313 Q73.3003,455.1807 72.5947,455.1807 Q70.0879,455.1807 68.7681,453.5289 Q67.4482,451.877 67.4482,448.7559 Q67.4482,445.6265 68.7681,443.9747 Q70.0879,442.3228 72.5947,442.3228 Q73.3003,442.3228 73.9478,442.4722 Q74.5952,442.6216 75.1597,442.9205 L75.1597,445.6431 Q74.5288,445.0621 73.9353,444.7923 Q73.3418,444.5225 72.7109,444.5225 Q71.3662,444.5225 70.6814,445.5892 Q69.9966,446.6558 69.9966,448.7559 Q69.9966,450.8477 70.6814,451.9144 Q71.3662,452.981 72.7109,452.981 Q73.3418,452.981 73.9353,452.7112 Q74.5288,452.4415 75.1597,451.8604 Z " fill="#000000"/><text fill="#000000" font-family="sans-serif" font-size="14" lengthAdjust="spacing" textLength="75.7627" x="93.1865" y="453.731">RealService</text><line style="stroke:#181818;stroke-width:0.5;" x1="8" x2="221.6357" y1="464.44" y2="464.44"/><line style="stroke:#181818;stroke-width:0.5;" x1="8" x2="221.6357" y1="472.44" y2="472.44"/><ellipse cx="18" cy="486.1841" fill="#84BE84" rx="3" ry="3" style="stroke:#038048;stroke-width:1;"/><text fill="#000000" font-family="sans-serif" font-size="14" lengthAdjust="spacing" textLength="189.6357" x="27" y="489.9752">Request(user: string): string</text></g><!--class AuthProxy--><g class="entity" data-entity="AuthProxy" data-source-line="9" data-uid="ent0004" id="entity_AuthProxy"><rect fill="#F1F1F1" height="97.4648" rx="2.5" ry="2.5" style="stroke:#181818;stroke-width:0.5;" width="215.6357" x="148" y="273.98"/><ellipse cx="216.4482" cy="289.98" fill="#ADD1B2" rx="11" ry="11" style="stroke:#181818;stroke-width:1;"/><path d="M218.9214,296.1231 Q218.3403,296.4219 217.7012,296.5713 Q217.062,296.7207 216.3564,296.7207 Q213.8496,296.7207 212.5298,295.0689 Q211.21,293.417 211.21,290.2959 Q211.21,287.1665 212.5298,285.5147 Q213.8496,283.8628 216.3564,283.8628 Q217.062,283.8628 217.7095,284.0122 Q218.3569,284.1616 218.9214,284.4605 L218.9214,287.1831 Q218.2905,286.6021 217.697,286.3323 Q217.1035,286.0625 216.4727,286.0625 Q215.1279,286.0625 214.4431,287.1292 Q213.7583,288.1958 213.7583,290.2959 Q213.7583,292.3877 214.4431,293.4544 Q215.1279,294.521 216.4727,294.521 Q217.1035,294.521 217.697,294.2512 Q218.2905,293.9815 218.9214,293.4004 Z " fill="#000000"/><text fill="#000000" font-family="sans-serif" font-size="14" lengthAdjust="spacing" textLength="70.2393" x="236.9482" y="295.271">AuthProxy</text><line style="stroke:#181818;stroke-width:0.5;" x1="149" x2="362.6357" y1="305.98" y2="305.98"/><rect fill="none" height="6" style="stroke:#C82930;stroke-width:1;" width="6" x="156" y="316.7241"/><text fill="#000000" font-family="sans-serif" font-size="14" lengthAdjust="spacing" textLength="157.2607" x="168" y="323.5152">realService: RealService</text><rect fill="none" height="6" style="stroke:#C82930;stroke-width:1;" width="6" x="156" y="333.2124"/><text fill="#000000" font-family="sans-serif" font-size="14" lengthAdjust="spacing" textLength="130.6143" x="168" y="340.0034">allowedUser: string</text><line style="stroke:#181818;stroke-width:0.5;" x1="149" x2="362.6357" y1="346.9566" y2="346.9566"/><ellipse cx="159" cy="360.7007" fill="#84BE84" rx="3" ry="3" style="stroke:#038048;stroke-width:1;"/><text fill="#000000" font-family="sans-serif" font-size="14" lengthAdjust="spacing" textLength="189.6357" x="168" y="364.4917">Request(user: string): string</text></g><!--class Client--><g class="entity" data-entity="Client" data-source-line="15" data-uid="ent0005" id="entity_Client"><rect fill="#F1F1F1" height="64.4883" rx="2.5" ry="2.5" style="stroke:#181818;stroke-width:0.5;" width="106.2061" x="61.71" y="7"/><ellipse cx="92.3255" cy="23" fill="#ADD1B2" rx="11" ry="11" style="stroke:#181818;stroke-width:1;"/><path d="M94.7987,29.1431 Q94.2176,29.4419 93.5785,29.5913 Q92.9393,29.7407 92.2337,29.7407 Q89.7269,29.7407 88.4071,28.0889 Q87.0872,26.437 87.0872,23.3159 Q87.0872,20.1865 88.4071,18.5347 Q89.7269,16.8828 92.2337,16.8828 Q92.9393,16.8828 93.5868,17.0322 Q94.2342,17.1816 94.7987,17.4805 L94.7987,20.2031 Q94.1678,19.6221 93.5743,19.3523 Q92.9808,19.0825 92.3499,19.0825 Q91.0052,19.0825 90.3204,20.1492 Q89.6356,21.2158 89.6356,23.3159 Q89.6356,25.4077 90.3204,26.4744 Q91.0052,27.541 92.3499,27.541 Q92.9808,27.541 93.5743,27.2712 Q94.1678,27.0015 94.7987,26.4204 Z " fill="#000000"/><text fill="#000000" font-family="sans-serif" font-size="14" lengthAdjust="spacing" textLength="39.5049" x="109.7956" y="28.291">Client</text><line style="stroke:#181818;stroke-width:0.5;" x1="62.71" x2="166.9161" y1="39" y2="39"/><line style="stroke:#181818;stroke-width:0.5;" x1="62.71" x2="166.9161" y1="47" y2="47"/><ellipse cx="72.71" cy="60.7441" fill="#84BE84" rx="3" ry="3" style="stroke:#038048;stroke-width:1;"/><text fill="#000000" font-family="sans-serif" font-size="14" lengthAdjust="spacing" textLength="80.2061" x="81.71" y="64.5352">main(): void</text></g><!--reverse link Service to RealService--><g class="link" data-entity-1="Service" data-entity-2="RealService" data-source-line="19" data-uid="lnk6" id="link_Service_RealService"><path codeLine="19" d="M114.82,231.26 C114.82,285.57 114.82,378.19 114.82,432.37" fill="none" id="Service-backto-RealService" style="stroke:#181818;stroke-width:1;stroke-dasharray:7.0,7.0;"/><polygon fill="none" points="114.82,213.26,108.82,231.26,120.82,231.26,114.82,213.26" style="stroke:#181818;stroke-width:1;"/></g><!--reverse link Service to AuthProxy--><g class="link" data-entity-1="Service" data-entity-2="AuthProxy" data-source-line="20" data-uid="lnk7" id="link_Service_AuthProxy"><path codeLine="20" d="M159.2341,225.8316 C177.1741,243.6416 187.23,253.62 207.39,273.63" fill="none" id="Service-backto-AuthProxy" style="stroke:#181818;stroke-width:1;stroke-dasharray:7.0,7.0;"/><polygon fill="none" points="146.46,213.15,155.0069,230.0896,163.4613,221.5735,146.46,213.15" style="stroke:#181818;stroke-width:1;"/></g><!--reverse link AuthProxy to RealService--><g class="link" data-entity-1="AuthProxy" data-entity-2="RealService" data-source-line="21" data-uid="lnk8" id="link_AuthProxy_RealService"><path codeLine="21" d="M198.7751,380.3355 C178.7051,400.2655 164.5,414.36 146.61,432.13" fill="none" id="AuthProxy-backto-RealService" style="stroke:#181818;stroke-width:1;"/><polygon fill="none" points="207.29,371.88,200.214,373.2695,198.7751,380.3355,205.851,378.9461,207.29,371.88" style="stroke:#181818;stroke-width:1;"/></g><!--link Client to Service--><g class="link" data-entity-1="Client" data-entity-2="Service" data-source-line="22" data-uid="lnk9" id="link_Client_Service"><path codeLine="22" d="M114.82,71.9 C114.82,94.72 114.82,119.41 114.82,142.21" fill="none" id="Client-to-Service" style="stroke:#181818;stroke-width:1;"/><polygon fill="#181818" points="114.82,148.21,118.82,139.21,114.82,143.21,110.82,139.21,114.82,148.21" style="stroke:#181818;stroke-width:1;"/><text fill="#000000" font-family="sans-serif" font-size="13" lengthAdjust="spacing" textLength="21.874" x="115.82" y="115.0584">usa</text></g><!--SRC=[dP1T2i8m3CVVUueyJgGxG151l81CF43OeWPgYqqx5VNkRkg-7lKfWVm_VeHTfB37ac1BeUPctXN0lA1p8ebP4We690PsXrctgATIfKKHA0ZjFxvLYiTDyDVRswN346F6cUqDhVKNgdQZm1-ArfR9nG_R2TbbZQRsNBMA3dpnoFD9w-JGewe1scizCNnRj5xsNpIG15y0]--></g></svg>